# xmcd CD database file
#
# Track frame offsets:
#	150
#	34287
#	53123
#	71414
#	88119
#	118675
#	139082
#	156011
#	184114
#	201910
#
# Disc length: 2925 seconds
#
# Revision: 0
# Processed by: cddbd v1.5.2PL0 Copyright (c) Steve Scherf et al.
# Submitted via: CDex 1.70beta2
#
DISCID=8c0b6b0a
DTITLE=Various Artist - Summer Chill CD 03
DYEAR=2008
DGENRE=New Age
TTITLE0=Primal Scream/Higher Than the Sun
TTITLE1=The Stone Roses/Shoot You Down
TTITLE2=Moshi/Sambassimo
TTITLE3=Pandora/Escape
TTITLE4=Mena Solar/Mi Vida
TTITLE5=Pablo Garcia/Fever
TTITLE6=Cafe/Follow Me
TTITLE7=Patentia/Remember Me
TTITLE8=Star/Spread Love
TTITLE9=Dusk/One Love
EXTD=YEAR: 2008
EXTT0=
EXTT1=
EXTT2=
EXTT3=
EXTT4=
EXTT5=
EXTT6=
EXTT7=
EXTT8=
EXTT9=
PLAYORDER=
